<svg width="32" height="32" viewBox="0 0 256 156" fill="none" xmlns="http://www.w3.org/2000/svg">
<path d="M256 0V22.5479L254.844 22.5901C251.196 22.8664 245.949 24.695 239.505 33.6376C231.76 44.4068 225.323 61.3019 219.15 78.0767L214.804 89.8789C209.559 103.965 203.994 117.887 197.174 129.035C186.439 146.58 173.868 155.111 158.728 155.111C144.829 155.111 134.778 147.558 127.993 139.804C121.221 147.558 111.171 155.111 97.2815 155.111C82.1309 155.111 69.5599 146.581 58.825 129.035C52.0049 117.895 46.4396 103.968 41.2065 89.9134L34.3732 71.4028C28.9359 56.8988 23.2044 42.9692 16.4842 33.628C9.33393 23.7015 3.6524 22.5479 0 22.5479V0.00976514H61.4339C74.6907 0.00976514 86.3727 6.8827 96.1413 20.425C104.204 31.631 110.497 46.6278 116.314 62.0452L120.607 73.6344C123.016 80.1997 125.461 86.8616 127.997 93.2255C129.69 88.9874 131.339 84.618 132.963 80.2345L138.234 65.9252C144.465 49.1535 151.123 32.5649 159.858 20.425C169.627 6.86324 181.308 0 194.566 0H256ZM61.4242 22.5479H36.1762C44.8344 35.411 51.4348 52.6371 57.718 69.6937L62.1766 81.7904C71.6057 107.087 82.4046 132.563 97.2718 132.563L98.4305 132.52C102.456 132.214 108.103 130.053 115.061 119.593C110.712 110.89 106.842 101.146 103.158 91.3012L95.8019 71.3908C90.3698 56.9052 84.6383 42.9692 77.9179 33.628C70.7582 23.7015 65.0766 22.5479 61.4242 22.5479ZM219.803 22.5382H194.556C190.903 22.5382 185.222 23.6917 178.062 33.6279C170.833 43.6793 164.744 59.0669 158.946 74.7123L152.832 91.2791C149.142 101.136 145.277 110.88 140.929 119.583C148.583 131.099 154.649 132.563 158.718 132.563C175.193 132.563 186.671 101.291 196.797 73.6926L199.706 65.7988C205.575 50.0101 211.82 34.4117 219.803 22.5382Z" fill="#365EFF"/>
</svg>
